#!OML:ASF Y:\EmotionMaleHayes\Project 1\Capture day 1\Session 1\Male1.ASF
:FULLY-SPECIFIED
:DEGREES
1161
root 8.69024 15.9865 -10.5105 173.179 -46.523 -168.665
lowerback 12.5709 0.525353 1.40544
upperback 6.42191 0.357519 1.21009
thorax -0.31802 -0.0255596 0.421211
lowerneck -20.7259 9.60818 10.6663
upperneck 27.0493 12.597 -9.71766
head 14.0635 5.11292 -3.32131
rclavicle -2.84262e-014 -6.36111e-015
rhumerus -87.3245 25.075 -105.79
rradius 51.5332
rwrist -22.1152
rhand -21.9839 -33.5378
rfingers 7.12502
rthumb 4.42428 -63.4716
lclavicle -2.84262e-014 -6.36111e-015
lhumerus -11.5901 -38.5366 80.9603
lradius 97.8865
lwrist 22.0689
lhand -33.2404 -26.578
lfingers 7.12502
lthumb -6.44626 3.30389
rfemur -14.8164 -3.03378 7.24068
rtibia 26.4091
rfoot -16.2362 -1.3254
rtoes -42.6733
lfemur -2.20581 -4.3629 -27.0404
ltibia 56.8612
lfoot -3.8415 -6.50713
ltoes 16.4373
1162
root 8.60497 16.0412 -10.6552 171.931 -47.2716 -167.043
lowerback 13.0377 0.68531 2.1605
upperback 6.47476 0.647596 1.53293
thorax -0.502255 0.120262 0.293576
lowerneck -21.099 9.46446 10.8189
upperneck 27.2511 12.3014 -9.64365
head 14.1963 5.00039 -3.37111
rclavicle -3.45885e-014 1.82882e-014
rhumerus -84.8962 26.0592 -106.416
rradius 49.4857
rwrist -21.7235
rhand -21.9356 -33.3232
rfingers 7.12502
rthumb 4.47092 -63.256
lclavicle -3.45885e-014 1.82882e-014
lhumerus -13.6862 -38.5456 82.9968
lradius 97.1887
lwrist 22.3313
lhand -32.9963 -25.9904
lfingers 7.12502
lthumb -6.21062 3.89857
rfemur -13.3906 -2.66319 8.64534
rtibia 25.6632
rfoot -16.8701 -2.12478
rtoes -41.8765
lfemur -4.33533 -2.39892 -24.6965
ltibia 59.4941
lfoot -3.88346 -7.25358
ltoes 10.0482
1163
root 8.51118 16.0904 -10.8007 170.775 -48.1284 -165.538
lowerback 13.3039 0.778868 2.83981
upperback 6.54986 0.841929 1.82076
thorax -0.552644 0.218588 0.184273
lowerneck -21.4517 9.35843 10.844
upperneck 27.5303 12.0698 -9.45467
head 14.3474 4.91556 -3.34307
rclavicle -2.70347e-014 -2.8625e-014
rhumerus -82.2082 27.5499 -107.5
rradius 46.6566
rwrist -21.5183
rhand -22.3096 -33.3901
rfingers 7.12502
rthumb 4.10984 -63.3302
lclavicle -2.70347e-014 -2.8625e-014
lhumerus -15.8341 -38.353 85.0277
lradius 96.0586
lwrist 22.4212
lhand -32.6176 -25.5777
lfingers 7.12502
lthumb -5.84505 4.32166
rfemur -11.9206 -2.78077 9.82235
rtibia 24.8727
rfoot -17.4285 -2.69975
rtoes -41.6331
lfemur -6.37897 -0.53578 -22.7324
ltibia 61.7183
lfoot -4.86884 -7.03344
ltoes 15.3942
1164
root 8.41073 16.1351 -10.9535 169.534 -49.0828 -163.801
lowerback 13.4525 0.816555 3.65774
upperback 6.48269 0.998286 2.11909
thorax -0.683627 0.305052 0.0132229
lowerneck -21.5437 9.15129 10.6387
upperneck 27.8048 11.7116 -9.03461
head 14.3882 4.79051 -3.2173
rclavicle -8.60738e-014 4.77083e-015
rhumerus -79.8408 28.0758 -106.931
rradius 46.7351
rwrist -19.4968
rhand -22.8736 -33.0006
rfingers 7.12502
rthumb 3.56514 -62.9505
lclavicle -8.60738e-014 4.77083e-015
lhumerus -18.2167 -38.0139 87.1764
lradius 94.4857
lwrist 22.3318
lhand -32.0468 -25.0011
lfingers 7.12502
lthumb -5.29391 4.91274
rfemur -10.5049 -2.94118 11.1566
rtibia 24.0196
rfoot -17.9868 -3.48942
rtoes -41.732
lfemur -8.58545 1.18688 -20.8353
ltibia 63.5898
lfoot -6.19411 -5.79088
ltoes 17.8345
1165
root 8.30118 16.1788 -11.0982 168.094 -49.8872 -161.797
lowerback 13.5933 0.85774 4.81368
upperback 6.29568 1.2167 2.37526
thorax -0.919178 0.428364 -0.399991
lowerneck -21.2002 8.84808 10.5532
upperneck 27.9036 11.2524 -8.81039
head 14.2751 4.6227 -3.22085
rclavicle -1.55052e-014 5.08889e-014
rhumerus -76.3465 28.692 -106.757
rradius 43.3179
rwrist -17.5787
rhand -23.0934 -33.1817
rfingers 7.12502
rthumb 3.35293 -63.1351
lclavicle -1.55052e-014 5.08889e-014
lhumerus -20.7857 -37.6051 89.3237
lradius 92.5576
lwrist 22.0098
lhand -31.4658 -24.2497
lfingers 7.12502
lthumb -4.7329 5.67747
rfemur -9.17719 -3.1581 12.6566
rtibia 23.1094
rfoot -18.3913 -4.24326
rtoes -42.1438
lfemur -10.9403 3.01999 -19.0397
ltibia 65.0244
lfoot -7.25775 -3.83803
ltoes 13.6727
1166
root 8.19032 16.2224 -11.2429 166.735 -50.6563 -159.887
lowerback 13.579 0.912016 5.93412
upperback 6.07434 1.44977 2.56098
thorax -1.09866 0.559025 -0.866249
lowerneck -20.5993 8.5511 10.4728
upperneck 27.9156 10.8349 -8.65135
head 14.0821 4.47051 -3.24655
rclavicle 9.93923e-016 -2.3059e-014
rhumerus -72.8902 29.1478 -106.222
rradius 41.1374
rwrist -16.3399
rhand -23.3616 -33.6529
rfingers 7.12502
rthumb 3.09391 -63.6102
lclavicle 9.93923e-016 -2.3059e-014
lhumerus -23.4092 -36.9779 91.3728
lradius 90.2877
lwrist 21.2064
lhand -30.836 -23.773
lfingers 7.12502
lthumb -4.12474 6.1668
rfemur -7.74723 -3.19929 14.0193
rtibia 21.9594
rfoot -18.8145 -4.73129
rtoes -41.1659
lfemur -13.461 4.78957 -17.5416
ltibia 66.2045
lfoot -8.0491 -1.78198
ltoes 6.91961
1167
root 8.07382 16.2689 -11.3837 165.541 -51.3571 -158.263
lowerback 13.5804 0.988656 6.889
upperback 5.90896 1.68752 2.63704
thorax -1.2223 0.688791 -1.35359
lowerneck -20.4506 8.32338 10.2656
upperneck 28.28 10.4646 -8.25613
head 14.1191 4.33607 -3.14043
rclavicle 4.75095e-014 -5.32743e-014
rhumerus -69.2039 29.4589 -105.433
rradius 39.1453
rwrist -14.944
rhand -23.7232 -34.081
rfingers 7.12502
rthumb 2.74471 -64.0431
lclavicle 4.75095e-014 -5.32743e-014
lhumerus -25.7028 -35.9363 93.0866
lradius 87.5314
lwrist 19.8225
lhand -29.992 -23.6392
lfingers 7.12502
lthumb -3.30975 6.3149
rfemur -6.10113 -3.04562 15.1136
rtibia 20.5831
rfoot -19.3978 -4.59128
rtoes -37.2424
lfemur -15.9898 6.48197 -16.4763
ltibia 67.0888
lfoot -8.96692 -0.145165
ltoes 4.00766
1168
root 7.94358 16.3191 -11.5253 164.31 -51.9784 -156.794
lowerback 13.6821 1.07768 7.75053
upperback 5.80589 1.93017 2.65314
thorax -1.32769 0.817261 -1.85261
lowerneck -20.044 8.28876 10.7081
upperneck 28.2777 10.4024 -8.60754
head 14.0808 4.31933 -3.38081
rclavicle -6.16232e-014 3.57812e-014
rhumerus -65.2531 29.5664 -104.276
rradius 37.1568
rwrist -13.5652
rhand -24.0551 -34.3131
rfingers 7.12502
rthumb 2.42412 -64.2791
lclavicle -6.16232e-014 3.57812e-014
lhumerus -27.8058 -34.7641 94.4442
lradius 84.5177
lwrist 18.4142
lhand -29.2878 -23.3952
lfingers 7.12502
lthumb -2.6297 6.56835
rfemur -4.16723 -3.60152 16.0709
rtibia 18.6379
rfoot -18.9738 -5.4559
rtoes -39.8079
lfemur -18.1973 8.02472 -15.626
ltibia 67.4553
lfoot -10.0767 0.494785
ltoes 8.72522
1169
root 7.84684 16.361 -11.662 162.696 -53.2766 -154.68
lowerback 13.9245 0.931352 8.68234
upperback 5.52135 1.91894 2.74548
thorax -1.7197 0.807709 -2.28119
lowerneck -19.7161 8.12742 11.0477
upperneck 28.3971 10.1421 -8.81384
head 14.068 4.22119 -3.5866
rclavicle 7.35503e-015 -1.66979e-014
rhumerus -61.3349 29.3826 -102.879
rradius 35.667
rwrist -12.422
rhand -24.3226 -34.8768
rfingers 7.12502
rthumb 2.1658 -64.8455
lclavicle 7.35503e-015 -1.66979e-014
lhumerus -29.7674 -33.7582 95.4326
lradius 81.3465
lwrist 17.5332
lhand -28.7187 -23.2568
lfingers 7.12502
lthumb -2.08002 6.71279
rfemur -2.36719 -4.19871 17.2158
rtibia 16.5931
rfoot -18.7905 -6.75967
rtoes -40.9017
lfemur -21.1692 8.67963 -14.7008
ltibia 68.0193
lfoot -10.5812 -0.0315494
ltoes 4.98931
1170
root 7.73607 16.4004 -11.7989 161.568 -54.0648 -153.176
lowerback 14.0776 1.0306 9.3775
upperback 5.31649 2.18581 2.74247
thorax -1.95653 0.937252 -2.71485
lowerneck -19.6902 7.84452 11.2842
upperneck 28.6771 9.71538 -9.00135
head 14.1573 4.03311 -3.79976
rclavicle -1.17283e-014 3.33958e-014
rhumerus -57.262 28.8705 -101.187
rradius 34.5431
rwrist -11.1211
rhand -24.4355 -35.7211
rfingers 7.12502
rthumb 2.05675 -65.691
lclavicle -1.17283e-014 3.33958e-014
lhumerus -31.2448 -32.8654 96.0075
lradius 77.834
lwrist 16.7378
lhand -28.1821 -22.8225
lfingers 7.12502
lthumb -1.5618 7.15151
rfemur -0.800328 -4.18364 18.1494
rtibia 14.8146
rfoot -19.0538 -7.69602
rtoes -40.377
lfemur -23.9807 9.77562 -14.1813
ltibia 68.0511
lfoot -10.9284 -0.571527
ltoes 3.84282
1171
root 7.56654 16.4524 -11.944 161.114 -53.8048 -153.084
lowerback 14.2794 1.52628 9.6728
upperback 5.50957 2.8627 2.56025
thorax -1.75148 1.28443 -3.16826
lowerneck -20.1156 7.59729 11.2723
upperneck 29.1312 9.32426 -8.9672
head 14.3934 3.85198 -3.87014
rclavicle 4.57205e-015 -1.27222e-014
rhumerus -52.9609 28.1227 -99.1708
rradius 33.9474
rwrist -10.0423
rhand -24.0218 -36.1716
rfingers 7.12502
rthumb 2.45632 -66.1372
lclavicle 4.57205e-015 -1.27222e-014
lhumerus -32.2286 -31.727 96.2131
lradius 74.0626
lwrist 15.2329
lhand -28.0528 -21.8682
lfingers 7.12502
lthumb -1.43692 8.10667
rfemur 1.33134 -4.05136 18.4458
rtibia 13.1069
rfoot -19.2041 -7.28754
rtoes -39.4464
lfemur -25.2319 11.8201 -14.0892
ltibia 66.9723
lfoot -11.2816 -1.12105
ltoes 2.91536
1172
root 7.42995 16.4882 -12.0783 159.976 -54.6767 -151.835
lowerback 14.4321 1.51551 10.203
upperback 5.53646 2.92957 2.54029
thorax -1.75906 1.3215 -3.49645
lowerneck -20.8304 7.45366 10.6713
upperneck 29.8537 9.04063 -8.22378
head 14.7485 3.73746 -3.5257
rclavicle -2.38542e-014 2.94201e-014
rhumerus -48.9195 27.5856 -97.2837
rradius 33.6403
rwrist -9.1255
rhand -24.1103 -35.6156
rfingers 7.12502
rthumb 2.37083 -65.5822
lclavicle -2.38542e-014 2.94201e-014
lhumerus -32.8963 -30.1541 96.0769
lradius 70.0662
lwrist 13.5341
lhand -28.1847 -21.3361
lfingers 7.12502
lthumb -1.5643 8.63795
rfemur 3.25959 -4.55957 18.8986
rtibia 11.3724
rfoot -19.2807 -7.32547
rtoes -38.0229
lfemur -27.5496 12.489 -14.0317
ltibia 66.5094
lfoot -11.8075 -1.66119
ltoes 2.30511
1173
root 7.2979 16.5168 -12.2145 158.563 -55.5407 -150.31
lowerback 14.6931 1.50725 10.7597
upperback 5.4784 3.03112 2.62235
thorax -1.91345 1.36464 -3.74287
lowerneck -20.9979 7.18706 10.1601
upperneck 30.0858 8.7039 -7.847
head 14.7919 3.58102 -3.35398
rclavicle 3.37934e-014 -3.81667e-014
rhumerus -45.3507 27.079 -95.5432
rradius 33.7083
rwrist -8.27536
rhand -24.4288 -35.5113
rfingers 7.12502
rthumb 2.06324 -65.4811
lclavicle 3.37934e-014 -3.81667e-014
lhumerus -33.4185 -28.7577 95.8493
lradius 65.7842
lwrist 12.771
lhand -28.3892 -21.6298
lfingers 7.12502
lthumb -1.76185 8.34268
rfemur 5.16436 -5.12405 19.5224
rtibia 9.70983
rfoot -19.2906 -7.38488
rtoes -37.1495
lfemur -29.9043 13.1502 -13.876
ltibia 65.9479
lfoot -12.33 -1.91389
ltoes 1.8486
